<svg xmlns="http://www.w3.org/2000/svg" style="background:#000" width="568" height="404" version="1"><g fill="none" fill-rule="evenodd" stroke="red" stroke-linecap="square" stroke-width="3"><path d="M72 127l12-42 18-5v52"/><path d="M85 86l-9-13h32M82 99h21M122 73h46l-16 18 14 23-35 4M129 73v55M216 74h-39v24h26M225 97V73h46l-20 25zM288 90l23-14h-29v23h19M365 75h-42v36M325 88h18M132 145H91v41h35l-15-15M173 144h-33v44"/><path d="M140 169l23-7v36M183 144h7v40M202 144h16v49l-12 9v-17M229 197v-56h44"/><path d="M251 165v-15l-21 10 29 12v18M283 140h7v49l8-6M301 167v-26h55M321 168v-26M347 168v-26M127 237v-26h29M150 238v-26M211 215h-49v24l43-6v-14"/><g><path d="M217 254v-42h43M217 231l33-18"/></g><g><path d="M310 230l-42 7v-24h46v34"/></g><g><path d="M103 286H70l8 13 18-9v20H72v28"/></g><g><path d="M116 284h32M133 284v51"/></g><g><path d="M156 282h7v27l44-6v-19h-28"/></g><g><path d="M216 284h7v28l28-27h-15"/></g><g><path d="M258 282v18l28 13v10"/><path d="M269 282h28l-44 41h18"/></g><g><path d="M323 284h10l-26 25h8l-9 17 27-1-9-17h-21v-21"/></g><g><path d="M345 284h27l-27 26h21v15"/></g></g></svg>