<svg xmlns="http://www.w3.org/2000/svg" width="1040" height="584" version="1"><g fill="none" fill-rule="evenodd"><g stroke="#FFF" stroke-linejoin="round" stroke-width="6"><rect width="60" height="120" rx="30" transform="translate(10 24)"/><path d="M94 56c16 0 28-32 28-32v119M94 145h52M170 55c0-17 13-31 30-31s30 14 30 31c0 39-60 90-60 90h56M250 25h56l-26 61a30 30 0 1 1-30 30M396 104h-68l48-80v125M470 24h-60v90a30 30 0 1 1 30 30h-30M490 117c0-24 16-32 32-32s28 12 28 30-13 30-30 30-30-13-30-30V54a30 30 0 0 1 60 0M571 24h60l-60 121"/><g transform="translate(650 24)"><rect width="60" height="60" y="62" rx="30"/><path d="M0 30C0 13 13 0 30 0s30 13 30 30-13 30-30 29C13 60 0 47 0 30z"/></g><g transform="translate(730 24)"><rect width="60" height="60" rx="30"/><path d="M57 44l-41 79"/></g><g stroke-linecap="square"><path d="M860 65l-40 39M860 104l-40-39"/></g><g stroke-linecap="square"><path d="M920 57v56M948 85h-56"/></g><g stroke-linecap="square"><path d="M1022 85h-45"/></g></g><g stroke="red" stroke-linecap="square" stroke-width="3"><path d="M22 267l12-42 18-5v52"/><path d="M35 226l-9-13h32M32 239h21M72 213h46l-16 18 14 23-35 4M79 213v55M166 214h-39v24h26M175 237v-24h46l-20 25zM238 230l23-14h-29v23h19M315 215h-42v36M275 228h18M82 285H41v41h35l-15-15M123 284H90v44"/><path d="M90 309l23-7v36M133 284h7v40M152 284h16v49l-12 9v-17M179 337v-56h44"/><path d="M201 305v-15l-21 10 29 12v18M233 280h7v49l8-6M251 307v-26h55M271 308v-26M297 308v-26M77 377v-26h29M100 378v-26M161 355h-49v24l43-6v-14"/><g><path d="M167 394v-42h43M167 371l33-18"/></g><g><path d="M260 370l-42 7v-24h46v34"/></g><g><path d="M53 426H20l8 13 18-9v20H22v28"/></g><g><path d="M66 424h32M83 424v51"/></g><g><path d="M106 422h7v27l44-6v-19h-28"/></g><g><path d="M166 424h7v28l28-27h-15"/></g><g><path d="M208 422v18l28 13v10"/><path d="M219 422h28l-44 41h18"/></g><g><path d="M273 424h10l-26 25h8l-9 17 27-1-9-17h-21v-21"/></g><g><path d="M295 424h27l-27 26h21v15"/></g></g></g></svg>