<svg xmlns="http://www.w3.org/2000/svg" width="1040" height="170"><g fill="none" stroke="#FFF" stroke-width="8" stroke-linejoin="round"><rect width="60" height="120" rx="30" transform="translate(10 24)"/><path d="M94 56c16 0 28-32 28-32v119m-28 2h52m24-90c0-17 13.5-31 30-31 16.6 0 30 14 30 31 0 39.3-60 90-60 90h56m24-120h56l-26 61c16.6 0 30 13.5 30 30s-13.5 30-30 30c-16.6 0-30-13.5-30-30m146-12h-68l48-80v125m94-125h-60v90c0-16.5 13.5-30 30-30 16.6 0 30 13.5 30 30 0 16.6-13.5 30-30 30h-30m80-27c0-24 16-32 32-32s28 12 28 30-13.5 30-30 30c-16.6 0-30-13.4-30-30V54c0-16.6 13.5-30 30-30 16.6 0 30 13.4 30 30m21-30h60l-60 121"/><g transform="translate(650 24)"><rect width="60" height="60" y="62" rx="30"/><path d="M0 29.5C0 13.2 13.2 0 29.5 0h1C46.8 0 60 13.2 60 29.5v1c0 16.3-13.2 29-29.5 28.5h-1C13.2 59.6 0 46.8 0 30.5v-1z"/></g><g transform="translate(730 24)"><rect width="60" height="60" rx="30"/><path d="M56.7 44L16 123"/></g><path d="M859.8 64.7l-39.6 39.6m39.6 0l-39.6-39.6m99.8-8.2v56m28-28h-56m130 0h-45" stroke-linecap="round"/></g></svg>
