<?xml version="1.0" encoding="UTF-8" standalone="no"?>
<svg width="400px" height="111px" viewBox="0 0 400 111" version="1.1" xmlns="http://www.w3.org/2000/svg" xmlns:xlink="http://www.w3.org/1999/xlink">
    <!-- Generator: Sketch 41.2 (35397) - http://www.bohemiancoding.com/sketch -->
    <title>Numbers</title>
    <desc>Created with Sketch.</desc>
    <defs></defs>
    <g id="Page-1" stroke="none" stroke-width="1" fill="none" fill-rule="evenodd" stroke-linejoin="round">
        <g id="Numbers" stroke="#FFFFFF" stroke-width="3">
            <g id="0" transform="translate(5.000000, 12.000000)">
                <rect id="Rectangle" x="0" y="0" width="30" height="60" rx="15"></rect>
            </g>
            <g id="1" transform="translate(47.000000, 10.000000)">
                <path d="M0,16 C8,16 14,0 14,0 L14,58" id="Path-4"></path>
                <path d="M0,59 L26,59" id="Path-5"></path>
            </g>
            <g id="2" transform="translate(85.000000, 12.000000)">
                <path d="M0,15.5025105 C0,6.94071037 6.73258558,0 15,0 C23.2842712,0 30,6.9412373 30,15.5025105 C30,35.1724138 0,60 0,60 L28,60" id="Rectangle-Copy"></path>
            </g>
            <g id="3" transform="translate(125.000000, 13.000000)">
                <path d="M2.6358371e-15,0.97675675 L28,1.02320602 L15,29.0007822 C23.2842712,29.0007822 30,35.727976 30,43.9887695 C30,52.2664063 23.2674144,58.9767567 15,58.9767567 C6.71572875,58.9767567 0,52.249563 0,43.9887695" id="Rectangle-Copy-2"></path>
            </g>
            <g id="4" transform="translate(163.000000, 14.000000)">
                <polyline id="Path-2" points="34 39.97624 0 39.97624 24 0 24 58"></polyline>
            </g>
            <g id="5" transform="translate(205.000000, 14.000000)">
                <path d="M30,0.0344520375 L3.55358655e-15,0 L0,43.00891 C0,34.7295596 6.73258558,28.01782 15,28.01782 C23.2842712,28.01782 30,34.7464064 30,43.00891 C30,51.2882604 23.2674144,58 15,58 L0,58" id="Rectangle-Copy-3"></path>
            </g>
            <g id="6" transform="translate(245.000000, 12.000000)">
                <path d="M0,46 C0,34 8,30 16,30 C24,30 30,36 30,45.0142398 C30,54.0284797 23.2674144,60 15,60 C6.71572875,60 0,53.2918861 0,45.0142398 L0,14.9857602 C0,6.70935336 6.73258558,0 15,0 C23.2842712,0 30,6.70811389 30,14.9857602" id="Rectangle-Copy-4"></path>
            </g>
            <g id="7" transform="translate(285.000000, 16.000000)">
                <polyline id="Path-3" points="0 0 30 0 0 56"></polyline>
            </g>
            <g id="8" transform="translate(325.000000, 13.000000)">
                <rect id="Rectangle" x="0" y="29" width="30" height="30" rx="15"></rect>
                <path d="M0,14.5166759 C0,6.4993372 6.50955319,0 14.5166759,0 L15.4833241,0 C23.5006628,0 30,6.50955319 30,14.5166759 L30,15.4833241 C30,23.5006628 23.5080227,29.5672015 15.516334,29.0344223 L15,29 L14.483666,29.0344223 C6.48455817,29.5676961 0,23.4904468 0,15.4833241 L0,14.5166759 Z" id="Rectangle-Copy-5"></path>
            </g>
            <g id="9" transform="translate(365.000000, 14.000000)">
                <rect id="Rectangle-Copy-5" x="0" y="0" width="30" height="30" rx="15"></rect>
                <path d="M29.3489996,20.0152007 L9,58" id="Path-3"></path>
            </g>
        </g>
    </g>
</svg>