<?xml version="1.0" encoding="UTF-8" standalone="no"?>
<svg width="1535px" height="1316px" viewBox="0 0 1535 1316" version="1.1" xmlns="http://www.w3.org/2000/svg" xmlns:xlink="http://www.w3.org/1999/xlink">
    <!-- Generator: Sketch 41.2 (35397) - http://www.bohemiancoding.com/sketch -->
    <title>Sprite</title>
    <desc>Created with Sketch.</desc>
    <defs></defs>
    <g id="Page-1" stroke="none" stroke-width="1" fill="none" fill-rule="evenodd">
        <g id="Sprite">
            <path d="M71.0538559,384.410198 C115.214819,394.691057 159.843095,364.549447 171.058577,316.649989 C182.27406,268.984188 155.870944,220.383762 111.709981,210.102903 C67.5490176,199.822044 23.8553659,231.599245 12.6398832,279.265047 C1.42440039,326.930849 26.8928925,374.129339 71.0538559,384.410198 Z M63.5768674,377.634177 C27.1265484,368.988909 25.2573013,319.687516 37.6410635,281.134294 C50.2584816,241.646448 87.4097683,210.102903 123.860087,218.748171 C160.310406,227.393439 160.07675,274.358273 148.1603,313.145151 C135.542882,354.502244 100.260842,386.279445 63.5768674,377.634177 Z M203.30309,211.037527 C293.72792,210.336559 313.355015,218.047203 315.92523,219.449139 L317.327165,275.292897 L339.290819,260.806231 L339.290819,208.467312 L175.731695,208.467312 C178.30191,283.003541 179.002878,314.547086 208.910832,376.699553 L232.510077,386.045789 C208.910832,326.229881 204.004058,295.854615 203.069434,263.14279 C250.50158,259.637952 302.139532,274.124617 304.709747,342.819449 L327.608024,322.491387 C327.608024,279.732359 284.148029,257.768705 203.069434,260.572575 C202.835778,245.618598 203.30309,230.19731 203.30309,211.037527 Z M366.862214,211.037527 C457.287044,210.336559 476.914139,218.047203 479.484354,219.449139 L480.886289,275.292897 L502.849943,260.806231 L502.849943,208.467312 L339.290819,208.467312 C341.861034,283.003541 342.562001,314.547086 372.469955,376.699553 L396.0692,386.045789 C372.469955,326.229881 367.563182,295.854615 366.628558,263.14279 C414.060704,259.637952 465.698656,274.124617 468.268871,342.819449 L491.167148,322.491387 C491.167148,279.732359 447.707152,257.768705 366.628558,260.572575 C366.394902,245.618598 366.862214,230.19731 366.862214,211.037527 Z M674.353367,220.150106 L650.987778,208.934624 C664.072507,340.716546 633.463586,367.586974 622.248103,376.699553 C607.995094,367.820629 605.191223,329.267407 605.191223,218.748171 L582.05929,208.233656 C582.292946,257.067737 582.292946,295.620959 585.564128,324.360634 C571.077463,343.053105 555.656174,358.941706 546.309938,366.65235 C532.056929,354.969555 536.029079,329.501063 536.029079,218.981827 L512.897146,208.467312 C511.728866,313.378807 505.653813,373.662027 541.169509,386.513101 C565.703377,359.409017 576.217892,342.352137 586.03144,327.865472 C590.00359,358.941706 598.648858,377.634177 617.107673,384.410198 C661.969604,354.7359 682.297667,314.780742 674.353367,220.150106 Z M847.258726,270.152467 L825.061416,259.637952 C826.697008,279.732359 825.762384,309.640313 822.958513,329.501063 C817.818084,361.044609 806.135289,385.344821 772.021529,377.867833 C746.085725,372.260091 725.524007,353.333964 714.775836,329.968375 C769.217658,329.501063 809.406472,269.451499 831.13647,236.038707 L811.275719,218.981827 C765.71282,199.121076 696.31702,206.364409 686.503473,256.366769 C678.559173,294.686336 710.102718,347.025255 749.356908,372.026436 C784.171635,393.756433 836.043243,393.055466 844.2212,350.530094 C847.959694,329.033752 848.894317,291.882465 847.258726,270.152467 Z M730.197125,240.010857 C746.319381,225.05688 783.470668,222.486665 808.705504,227.159783 C797.02271,262.208167 768.984003,319.220204 714.074868,328.800096 C701.223794,299.826765 703.794009,264.778382 730.197125,240.010857 Z M996.56484,278.096767 C1019.22946,275.993864 1034.88441,261.974511 1028.5757,219.215483 L1007.07936,208.467312 C943.057641,204.495162 899.130334,235.571395 888.615819,292.349777 L890.25141,218.748171 L866.652165,208 L867.353133,373.428371 L889.550442,385.812133 C961.282801,389.784283 1027.17376,375.063962 1030.6786,333.473214 C1033.48247,300.294077 1017.59387,285.573756 996.56484,278.096767 Z M1007.78032,211.504838 C1013.38806,277.629456 979.274305,277.629456 922.495923,260.806231 C942.356674,222.953977 968.292478,208 1007.78032,211.504838 Z M1005.67742,336.277084 C999.602367,374.362994 916.654526,387.68138 889.784098,382.774607 C890.017754,374.129339 891.653345,350.296438 896.560119,333.706869 C904.037108,304.499883 912.215064,281.134294 921.561299,262.909134 C933.244094,266.180317 948.198071,271.320746 963.385704,274.825585 C988.854196,283.704509 1011.75247,298.191174 1005.67742,336.277084 Z" id="OFFWEB" fill="#000000"></path>
            <path d="M1146.31524,88.1905727 C1142.09732,84.8014996 1137.0172,82.5013087 1131.07488,81.29 L1128.98449,80.96 C1132.79855,73.92 1134.77893,66.11 1134.92562,57.53 C1134.77893,61.3433339 1132.90857,66.8066661 1129.31455,73.92 C1128.14099,76.1933339 1126.6007,78.32 1124.69367,80.3 C1118.31245,79.5666661 1110.86769,79.1266661 1102.3594,78.98 L1081.45541,78.98 L1081.45541,92.29 C1085.56286,92.29 1093.70441,92.3633339 1105.88007,92.51 L1108.19051,92.51 C1105.62336,93.9766661 1103.16622,95.2966661 1100.81911,96.47 C1085.63621,104.023334 1062.78851,107.8 1032.27601,107.8 L1010.27181,107.8 L1010.27181,121.11 L1031.06578,121.11 C1049.9894,121.11 1067.37272,118.58 1083.21574,113.52 C1098.3253,108.753334 1110.46428,101.86 1119.6327,92.84 C1121.61308,92.84 1123.77682,92.9133339 1126.12394,93.06 C1135.10952,93.6396039 1141.83996,95.4002531 1146.31524,98.3419443 L1146.31524,88.1905727 Z M1238.60547,86.4629288 C1238.56846,86.4619591 1238.53177,86.4609828 1238.4954,86.46 C1231.16067,86.3133339 1222.90909,85.7266661 1213.74067,84.7 C1203.61874,83.5266661 1194.92708,80.5933339 1187.66569,75.9 C1181.35782,71.94 1177.9105,65.8166661 1177.32372,57.53 C1177.54376,58.5566661 1178.27723,59.95 1179.52414,61.71 C1180.91774,63.6166661 1184.84182,65.7066661 1191.29639,67.98 C1197.67761,70.2533339 1207.02939,71.61 1219.35175,72.05 C1230.35385,72.3433339 1236.51502,72.49 1237.83528,72.49 C1236.88176,69.9966661 1236.36833,68.6766661 1236.29498,68.53 C1234.97473,66.4033339 1232.15086,64.2766661 1227.82336,62.15 C1223.05579,59.8766661 1216.16114,58.52 1207.13941,58.08 C1199.80468,57.7133339 1192.98338,57.53 1186.6755,57.53 L1158.73017,57.53 L1158.73017,44.11 L1183.15483,44 C1194.45032,44 1203.98548,44.6966661 1211.7603,46.09 C1219.46177,47.41 1225.65962,50.16 1230.35385,54.34 C1235.41481,58.8133339 1237.98197,64.8633339 1238.05532,72.49 C1239.00883,72.49 1240.51245,72.5083339 1242.56618,72.545 C1244.61991,72.5816661 1246.19687,72.6 1247.29708,72.6 C1264.02028,72.7466661 1275.24242,72.82 1280.96351,72.82 C1284.1908,72.8933339 1286.94132,73.0033339 1289.21509,73.15 C1291.48886,73.2966661 1293.54258,73.4616661 1295.37627,73.645 C1297.20995,73.8283339 1298.51186,73.9566661 1299.28201,74.03 C1300.05216,74.1033339 1301.37241,74.305 1303.24277,74.635 C1305.11313,74.965 1306.34169,75.1666661 1306.92847,75.24 C1317.3438,76.78 1325.85209,80.08 1332.45335,85.14 C1338.76122,90.0533339 1341.9885,97.4966661 1342.1352,107.47 C1342.06185,106.15 1341.32838,104.133334 1339.93478,101.42 C1338.32113,98.4866661 1334.39705,95.48 1328.16253,92.4 C1322.14804,89.3933339 1312.79626,87.56 1300.10717,86.9 C1296.4398,86.68 1290.13193,86.57 1281.18355,86.57 L1252.13801,86.57 C1245.77003,86.57 1241.32966,86.5343111 1238.60558,86.4629317 C1238.67985,87.8561621 1239.44995,89.871851 1240.91586,92.51 C1242.45616,95.4433339 1246.34357,98.45 1252.57809,101.53 C1258.66592,104.536666 1268.01771,106.37 1280.63345,107.03 C1286.28119,107.323334 1301.13403,107.47 1325.19196,107.47 L1342.35524,107.47 L1342.35524,120.89 L1313.41971,121.11 C1298.6769,121.183334 1285.47437,120.376666 1273.81215,118.69 C1263.39682,117.15 1254.88853,113.85 1248.28727,108.79 C1241.98002,103.877147 1238.75275,96.4347911 1238.60547,86.4629288 Z M134.944628,44.11 L84.5550037,44.11 C57.4164864,44.11 37.5393578,49.6466661 24.9236143,60.72 C12.6746087,71.5 6.36673615,87.1933339 6,107.8 L6,121.11 L56.3896242,121.11 C83.5281415,121.11 103.40527,115.573334 116.021014,104.5 C128.343367,93.72 134.651238,78.0633339 134.944628,57.53 L134.944628,44.11 Z M131.313934,73.59 C128.893472,80.9966661 121.962148,88.55 110.519963,96.25 C99.0777775,103.95 81.4377422,107.8 57.5998554,107.8 L6,107.8 C6.29338993,103.473334 7.50362108,98.0833339 9.63069345,91.63 C12.0511557,84.2966661 18.9824796,76.78 30.424665,69.08 C41.8668504,61.38 59.5068857,57.53 83.3447725,57.53 L134.944628,57.53 C134.651238,61.71 133.441007,67.0633339 131.313934,73.59 Z M222.081271,107.8 L186.434462,107.8 L186.434462,44.11 L183.903979,44.11 C183.903979,46.53 183.317201,50.3066661 182.143643,55.22 C180.896738,60.3533339 177.999517,65.4866661 173.451983,70.62 C168.757752,75.9 161.826428,78.6866661 152.658011,78.98 L144.846519,78.98 L144.846519,92.29 L149.467402,92.29 C160.982935,92.4366661 169.601247,89.3566661 175.32234,83.05 C181.043433,76.7433339 183.903979,67.1366661 183.903979,54.23 L183.903979,107.8 L147.817086,107.8 L147.817086,121.11 L222.081271,121.11 L222.081271,107.8 Z M338.15344,44.11 C319.37652,44.11 302.249916,45.7233339 286.773627,48.95 C271.517379,52.25 259.2317,57.6033339 249.916587,65.01 C240.601474,72.3433339 235.943918,81.9133339 235.943918,93.72 C235.943918,90.9333339 237.704255,86.9 241.224927,81.62 C244.672252,76.34 253.877344,70.9866661 268.840201,65.56 C283.729711,60.2066661 306.430715,57.53 336.943209,57.53 L356.526949,57.53 L356.526949,44.11 L338.15344,44.11 Z M346.405016,72.71 C342.004175,75.79 335.219546,77.6233339 326.051128,78.21 C320.696772,78.5033339 313.948817,78.6866661 305.807262,78.76 C304.707052,78.76 303.14842,78.7783339 301.131369,78.815 C299.114318,78.8516661 297.629034,78.87 296.675518,78.87 L287.323732,78.87 C286.663606,78.87 285.673416,78.8883339 284.353164,78.925 C283.032912,78.9616661 282.079396,78.98 281.492618,78.98 C272.874306,79.2 265.392877,79.8233339 258.93831,80.85 C251.530229,82.17 245.442399,84.92 240.674822,89.1 C235.907245,93.4266661 233.376762,99.5866661 233.083372,107.58 C233.230066,106.48 233.816846,105.05 234.843708,103.29 C235.943918,101.31 238.767792,99.22 243.315326,97.02 C247.716167,94.8933339 254.464122,93.5366661 263.559193,92.95 C268.913549,92.6566661 275.698177,92.4733339 283.91308,92.4 C285.01329,92.4 286.571922,92.3816661 288.588973,92.345 C290.606025,92.3083339 292.091308,92.29 293.044824,92.29 L302.28659,92.29 C304.7804,92.29 306.650757,92.2533339 307.897661,92.18 C317.762879,91.8133339 325.354329,91.0433339 331.002074,89.87 C338.630197,88.4033339 344.791374,85.1033339 349.485604,79.97 C354.179835,74.9833339 356.526949,67.5033339 356.526949,57.53 C356.453601,58.85 355.903496,60.9033339 354.876634,63.69 C353.62973,66.6966661 350.805857,69.7033339 346.405016,72.71 Z M374.460374,83.6 C371.01305,88.88 361.771285,94.2333339 346.735079,99.66 C331.698873,105.086666 308.997871,107.8 278.632072,107.8 L233.083372,107.8 L233.083372,121.11 L277.42184,121.11 C296.418803,121.11 313.582081,119.46 328.911675,116.16 C343.947881,113.006666 356.233559,107.69 365.768714,100.21 C375.010479,92.8766661 379.631362,83.3066661 379.631362,71.5 C379.631362,74.2133339 377.907699,78.2466661 374.460374,83.6 Z M529.920067,44.11 C511.143146,44.11 494.016543,45.7233339 478.540253,48.95 C463.284005,52.25 450.998327,57.6033339 441.683214,65.01 C432.368101,72.3433339 427.710545,81.9133339 427.710545,93.72 C427.710545,90.9333339 429.470881,86.9 432.991554,81.62 C436.438878,76.34 445.64397,70.9866661 460.606828,65.56 C475.496338,60.2066661 498.197342,57.53 528.709835,57.53 L548.293576,57.53 L548.293576,44.11 L529.920067,44.11 Z M538.171643,72.71 C533.770802,75.79 526.986172,77.6233339 517.817755,78.21 C513.710304,78.5033339 502.964918,78.65 485.581598,78.65 L456.646072,78.65 L456.646072,91.96 C464.274195,91.96 469.775245,91.9966661 473.149224,92.07 L478.650274,92.18 C486.791829,92.3266661 492.512922,92.51 495.813552,92.73 C504.98197,93.3166661 511.913293,94.71 516.607524,96.91 C521.521796,99.2566661 524.712406,101.493334 526.179352,103.62 C527.499604,105.453334 528.269751,106.846666 528.489793,107.8 C528.416446,100.393334 525.995983,94.5266661 521.228407,90.2 L522.768701,89.87 C530.323478,88.4033339 536.484654,85.1033339 541.252231,79.97 C545.946461,74.9833339 548.293576,67.5033339 548.293576,57.53 C548.220228,58.85 547.670123,60.9033339 546.643261,63.69 C545.396356,66.6966661 542.572483,69.7033339 538.171643,72.71 Z M420.559179,100.65 C410.657288,97.57 403.212532,93.94 398.224913,89.76 C393.383989,85.7266661 390.340073,82.1333339 389.093169,78.98 C387.919611,76.12 387.332833,73.9933339 387.332833,72.6 C387.332833,83.6733339 391.917042,92.9133339 401.08546,100.32 C410.253877,107.726666 423.236357,113.116666 440.032899,116.49 C455.14245,119.643334 478.50358,121.22 510.116284,121.22 L528.489793,121.22 L528.489793,107.8 L508.906053,107.8 C465.557774,107.8 436.108815,105.416666 420.559179,100.65 Z M732.13869,63.58 C730.965131,65.56 728.14126,67.5766661 723.667071,69.63 C719.192883,71.6833339 712.408255,73.0033339 703.313184,73.59 C694.878239,74.1033339 682.922623,74.36 667.446334,74.36 L659.854884,74.36 L659.854884,57.42 L695.831755,57.42 L695.831755,44.11 L663.375556,44.11 C644.52529,44.11 627.178643,46.6033339 611.335617,51.59 C595.785981,56.43 583.20691,63.7633339 573.598409,73.59 C564.796728,82.5366661 560.102497,93.3533339 559.515719,106.04 C559.369025,107.8 559.295677,109.156666 559.295677,110.11 C559.442371,107.543334 561.569445,104.61 565.676896,101.31 C569.711,98.1566661 579.209481,95.0766661 594.172339,92.07 C608.401722,89.2833339 629.452411,87.8166661 657.3244,87.67 L657.3244,107.8 L621.237508,107.8 L621.237508,121.11 L695.501692,121.11 L695.501692,107.8 L659.854884,107.8 L659.854884,87.67 L679.548645,87.67 C690.037314,87.67 699.499122,86.9 707.934067,85.36 C715.708885,83.8933339 721.943408,81.1066661 726.637639,77 C731.405216,72.82 733.789005,66.9166661 733.789005,59.29 C733.789005,60.3166661 733.2389,61.7466661 732.13869,63.58 Z M608.145007,76.78 C593.842275,78.3933339 582.1067,81.84 572.938283,87.12 C568.244052,89.76 564.760055,93.0966661 562.486287,97.13 C563.513149,94.71 564.429992,92.7666661 565.236812,91.3 C569.124221,83.7466661 578.622702,76.23 593.732254,68.75 C608.034986,61.6366661 629.232369,57.86 657.3244,57.42 L657.3244,74.36 C637.74066,74.5066661 621.347529,75.3133339 608.145007,76.78 Z M873.735734,44.11 L823.34611,44.11 C798.994793,44.11 780.511262,48.5466661 767.895519,57.42 L767.895519,44.11 L742.370644,44.11 L742.370644,108.02 L744.791106,108.02 L744.791106,57.53 L767.785498,57.53 C766.831982,58.19 765.475057,59.2533339 763.71472,60.72 C751.098977,71.7933339 744.791106,88.0366661 744.791106,109.45 C744.791106,104.903334 746.001337,98.9633339 748.4218,91.63 C750.842262,84.2966661 757.773586,76.78 769.215771,69.08 C780.657956,61.38 798.297992,57.53 822.135879,57.53 L873.735734,57.53 L873.735734,44.11 Z M849.311069,96.25 C837.868884,103.95 820.228848,107.8 796.390961,107.8 L766.135183,107.8 L766.135183,121.11 L795.18073,121.11 C822.319248,121.11 842.196376,115.573334 854.81212,104.5 C867.134473,93.72 873.442344,78.0633339 873.735734,57.53 C873.442344,61.71 872.232113,67.0633339 870.105041,73.59 C867.684578,80.9966661 860.753254,88.55 849.311069,96.25 Z M982.766558,78.54 C955.994779,78.54 934.393986,80.7033339 917.964181,85.03 C904.248228,88.6966661 896.326715,94.6366661 894.199642,102.85 C894.786421,99.6233339 895.77661,95.8833339 897.17021,91.63 C899.590672,84.2233339 906.521996,76.67 917.964181,68.97 C929.406367,61.27 947.046402,57.42 970.884289,57.42 L1003.45051,57.42 L1003.45051,44.11 L972.09452,44.11 C944.956003,44.11 925.078874,49.6466661 912.463131,60.72 C900.287471,71.3533339 893.9796,86.7533339 893.539516,106.92 L893.539516,107.69 C893.906253,106.81 895.153159,105.416666 897.280231,103.51 C899.627345,101.383334 904.651639,99.1466661 912.35311,96.8 C919.761191,94.6 930.726619,93.2066661 945.249393,92.62 C958.525262,92.1066661 977.962307,91.85 1003.56053,91.85 L1003.56053,78.54 L982.766558,78.54 Z M999.929837,96.14 C997.582722,98.2666661 992.558429,100.503334 984.856958,102.85 C977.448877,105.05 966.483448,106.443334 951.960675,107.03 C938.684805,107.543334 919.211086,107.8 893.539516,107.8 L893.539516,121.11 L914.443509,121.11 C941.215288,121.11 962.816082,118.946666 979.245886,114.62 C995.382302,110.293334 1003.48718,102.703334 1003.56053,91.85 C1003.26714,92.8033339 1002.05691,94.2333339 999.929837,96.14 Z M1116.55211,44.11 C1097.77519,44.11 1080.64859,45.7233339 1065.1723,48.95 C1049.91605,52.25 1037.63037,57.6033339 1028.31526,65.01 C1019.00014,72.3433339 1014.34259,81.9133339 1014.34259,93.72 C1014.34259,90.9333339 1016.10293,86.9 1019.6236,81.62 C1023.07092,76.34 1032.27601,70.9866661 1047.23887,65.56 C1062.12838,60.2066661 1084.82939,57.53 1115.34188,57.53 L1134.92562,57.53 L1134.92562,44.11 L1116.55211,44.11 Z M1365.60968,69.08 C1367.95679,66.9533339 1372.98109,64.7166661 1380.68256,62.37 C1388.09064,60.17 1399.05607,58.7766661 1413.57884,58.19 C1426.85471,57.6766661 1446.32843,57.42 1472,57.42 L1472,44.11 L1451.09601,44.11 C1424.32423,44.11 1402.72343,46.2733339 1386.29363,50.6 C1370.15721,54.9266661 1362.05233,62.5166661 1361.97899,73.37 C1362.27238,72.4166661 1363.48261,70.9866661 1365.60968,69.08 Z M1382.77296,86.68 C1409.54474,86.68 1431.14553,84.5166661 1447.57533,80.19 C1461.29129,76.5233339 1469.2128,70.5833339 1471.33987,62.37 C1470.7531,65.5966661 1469.76291,69.3366661 1468.36931,73.59 C1465.94884,80.9966661 1459.01752,88.55 1447.57533,96.25 C1436.13315,103.95 1418.49311,107.8 1394.65523,107.8 L1362.08901,107.8 L1362.08901,121.11 L1393.445,121.11 C1420.58351,121.11 1440.46064,115.573334 1453.07639,104.5 C1465.25205,93.8666661 1471.55992,78.4666661 1472,58.3 L1472,57.53 C1471.63326,58.41 1470.38636,59.8033339 1468.25929,61.71 C1465.91217,63.8366661 1460.88788,66.0733339 1453.18641,68.42 C1445.77833,70.62 1434.8129,72.0133339 1420.29012,72.6 C1407.01425,73.1133339 1387.57721,73.37 1361.97899,73.37 L1361.97899,86.68 L1382.77296,86.68 Z" id="0123456789" fill="#000000"></path>
            <path d="M130.317664,471.339773 L130.594322,471.063115 C96.4271256,419.466499 38.1907303,442.567397 33.0725672,468.711527 C28.3693904,491.397439 47.5970839,522.383074 70.8363105,537.184248 C104.173534,555.720298 131.424294,541.749096 128.242734,498.590532 L115.101504,492.36574 C118.283065,519.754828 108.185068,546.175616 84.2541974,540.642466 C54.3751917,533.72603 31.5509512,484.757659 56.7267801,459.028516 C75.1245012,440.215808 111.504957,447.270574 130.317664,471.339773 Z M170.847982,544.515671 C196.992112,550.602135 223.4129,532.757729 230.052679,504.400339 C236.692458,476.181278 221.061311,447.408902 194.917181,441.322438 C168.773051,435.235974 142.905579,454.048681 136.2658,482.267742 C129.626021,510.486803 144.703852,538.429207 170.847982,544.515671 Z M166.421463,540.504138 C144.842181,535.385975 143.735551,506.198613 151.066974,483.374372 C158.536725,459.996817 180.530994,441.322438 202.110275,446.440601 C223.689557,451.558764 223.551229,479.362839 216.496463,502.325408 C209.026712,526.809593 188.139074,545.622301 166.421463,540.504138 Z M318.029751,439.109179 C305.303508,453.08038 299.078715,462.625063 293.822223,470.5098 C292.02395,454.048681 287.735759,443.950684 277.637762,440.354137 C263.943218,455.570297 257.441767,464.699994 251.770289,472.584731 L251.770289,446.025615 L238.62906,440.07748 C238.62906,473.968019 238.490731,505.091983 238.490731,539.259179 L251.631961,545.207315 C251.631961,520.861458 251.770289,498.175546 251.770289,474.93632 C260.208342,464.699994 269.199709,456.538599 274.59453,452.112079 C283.032582,457.368571 281.09598,474.106347 281.09598,539.535837 L294.790525,545.760629 C294.652196,514.774994 295.620497,490.567466 294.098881,472.999717 C301.84529,463.178378 309.868356,455.016983 314.986519,450.867121 C323.424572,457.783557 321.487969,472.861389 321.487969,538.290878 L335.182514,544.515671 C334.905856,482.129414 339.055718,446.717259 318.029751,439.109179 Z M421.914627,481.576099 C435.332514,480.33114 444.600539,472.031416 440.865664,446.717259 L428.13942,440.354137 C390.237348,438.002549 364.231547,456.40027 358.006754,490.014151 L358.975055,446.440601 L345.003854,440.07748 L345.41884,538.014221 L358.560069,545.345643 L358.560069,545.483972 C401.026989,547.697232 440.035691,538.982522 442.110622,514.360008 C443.770567,494.717328 434.364213,486.002618 421.914627,481.576099 Z M428.554407,442.152411 C431.874296,481.299441 411.678301,481.299441 378.06442,471.339773 C389.822362,448.930518 405.176851,440.07748 428.554407,442.152411 Z M427.309448,516.019952 C423.712901,538.567535 374.606202,546.452273 358.698398,543.54737 C358.836727,538.429207 359.805028,524.319676 362.709931,514.498336 C367.13645,497.207245 371.977956,483.374372 377.511105,472.584731 C384.427542,474.521333 393.28058,477.564566 402.271948,479.639496 C417.349779,484.895988 430.905995,493.472369 427.309448,516.019952 Z M485.269186,544.515671 C511.413316,550.602135 537.834103,532.757729 544.473882,504.400339 C551.113661,476.181278 535.482515,447.408902 509.338385,441.322438 C483.194255,435.235974 457.326782,454.048681 450.687003,482.267742 C444.047224,510.486803 459.125056,538.429207 485.269186,544.515671 Z M480.842667,540.504138 C459.263385,535.385975 458.156755,506.198613 465.488177,483.374372 C472.957929,459.996817 494.952197,441.322438 516.531479,446.440601 C538.110761,451.558764 537.972432,479.362839 530.917667,502.325408 C523.447915,526.809593 502.560277,545.622301 480.842667,540.504138 Z" id="Combo" fill="#FFFFFF"></path>
            <path d="M137.619411,588.556499 L124.31905,581.906319 C84.7071073,579.448643 57.5281098,598.676338 51.0224987,633.806638 L52.0344827,588.267361 L37.433,581.61718 L37.8667074,683.972128 L52.323621,691.778862 C52.323621,682.381868 52.323621,671.683752 55.9378494,659.395375 L56.3715568,657.805115 C113.620934,660.118221 145.715283,643.49277 137.619411,588.556499 Z M56.660695,656.359424 C71.2621777,601.71229 89.0441814,580.605196 124.752758,583.785717 C130.824662,624.409645 99.0194518,658.67253 56.660695,656.359424 Z M242.142896,620.07257 L228.408828,613.566959 C229.420812,625.999905 228.842535,644.504754 227.107706,656.793131 C223.927185,676.309964 216.698728,691.345154 195.591634,686.718942 C179.54446,683.249283 166.822376,671.539183 160.172196,657.082269 C193.856805,656.793131 218.722696,619.638863 232.167626,598.965477 L219.879249,588.41193 C191.688268,576.123553 148.751234,580.605196 142.679331,611.542991 C137.76398,635.25233 157.280813,667.635816 181.568428,683.104714 C203.109229,696.549643 235.203577,696.115936 240.263497,669.804353 C242.576603,656.503993 243.15488,633.5175 242.142896,620.07257 Z M169.713759,601.423152 C179.689029,592.170727 202.675522,590.580467 218.288989,593.47185 C211.060532,615.15722 193.712236,650.432089 159.738489,656.359424 C151.787186,638.432851 153.377447,616.74748 169.713759,601.423152 Z M329.462654,648.55269 C347.822934,638.432851 356.063375,619.638863 351.437162,588.556499 L338.136802,581.906319 C298.524859,579.448643 271.345861,598.676338 264.84025,633.806638 L265.852234,588.267361 L251.250751,581.61718 L251.684459,683.972128 L266.141372,691.778862 C266.141372,682.381868 266.141372,671.683752 269.755601,659.395375 L270.189308,657.805115 C294.476923,658.817099 314.138325,656.359424 328.306101,649.130967 C338.281371,653.178903 337.558525,670.38263 337.558525,684.405836 L352.449146,692.068 C352.449146,663.154173 351.148024,656.070285 329.462654,648.55269 Z M270.478447,656.359424 C285.079929,601.71229 302.861933,580.605196 338.570509,583.785717 C344.642413,624.409645 312.837203,658.67253 270.478447,656.359424 Z M372.544256,583.496579 C428.492512,583.062872 440.636319,587.833653 442.22658,588.701068 L443.093994,623.253091 L456.683493,614.289805 L456.683493,581.906319 L355.485098,581.906319 C357.075359,628.023873 357.509066,647.540706 376.013915,685.996096 L390.615398,691.778862 C376.013915,654.769163 372.977964,635.975175 372.399687,615.735496 C401.747222,613.566959 433.697001,622.530246 435.287261,665.033572 L449.455036,652.456057 C449.455036,625.999905 422.565177,612.410406 372.399687,614.145236 C372.255118,604.892811 372.544256,595.351248 372.544256,583.496579 Z M557.159042,620.07257 L543.424974,613.566959 C544.436958,625.999905 543.858682,644.504754 542.123852,656.793131 C538.943331,676.309964 531.714874,691.345154 510.607781,686.718942 C494.560607,683.249283 481.838523,671.539183 475.188342,657.082269 C508.872951,656.793131 533.738842,619.638863 547.183772,598.965477 L534.895395,588.41193 C506.704414,576.123553 463.767381,580.605196 457.695477,611.542991 C452.780126,635.25233 472.29696,667.635816 496.584575,683.104714 C518.125376,696.549643 550.219724,696.115936 555.279644,669.804353 C557.59275,656.503993 558.171026,633.5175 557.159042,620.07257 Z M484.729905,601.423152 C494.705176,592.170727 517.691668,590.580467 533.305135,593.47185 C526.076678,615.15722 508.728382,650.432089 474.754635,656.359424 C466.803333,638.432851 468.393593,616.74748 484.729905,601.423152 Z M654.164932,598.965477 C618.456356,567.593974 569.447419,584.219425 564.098361,611.542991 C559.18301,635.25233 579.27812,667.635816 603.565735,683.104714 C638.406897,702.476978 666.887016,687.875495 663.561926,642.769925 L649.827858,636.264314 C653.152948,664.889003 642.599401,692.501707 617.588941,686.718942 C586.362008,679.490485 562.5081,628.313011 588.819683,601.423152 C608.047378,581.76175 643.033109,591.592451 654.164932,598.965477 Z M770.832225,620.939985 L785,614.000667 L785,581.906319 L669.922968,581.906319 L669.922968,583.062872 C669.922968,610.386438 663.851064,661.99762 703.318438,637.854574 C707.366374,660.407359 713.293709,682.381868 721.534149,688.453772 C738.304169,700.742148 760.856954,672.984874 766.928858,665.756417 L766.350582,665.32271 C754.92962,676.309964 738.304169,687.00808 729.919159,678.62307 C717.775352,666.479263 713.727416,617.614895 710.980603,584.653132 C743.508658,584.653132 768.808257,587.110808 770.832225,587.544515 L770.832225,620.939985 Z M685.102727,584.653132 L696.523689,584.653132 C697.246535,592.893573 699.415072,614.868082 703.173869,636.698021 C673.970904,652.745195 682.066775,605.471088 685.102727,584.653132 Z" id="Perfect" fill="#FFFFFF"></path>
            <path d="M927.073053,465.856044 C922.839957,468.918705 919.169114,472.902664 916.387672,477.720262 C907.382651,493.317417 910.60608,512.619026 923.083274,524.523413 C915.60108,516.929197 913.77298,505.001215 919.362291,495.320245 C926.073505,483.696081 940.937267,479.713348 952.561431,486.424562 C964.185595,493.135777 968.168328,507.999538 961.457114,519.623702 C959.686858,522.689875 957.349367,525.224376 954.653719,527.17118 C954.653719,527.17118 954.228758,529.181555 963.856978,534.969962 C975.166222,541.768987 998.497184,537.725183 1010.29086,525.364027 C1002.69664,532.846221 990.768663,534.674321 981.087693,529.08501 C969.463529,522.373795 965.480796,507.510034 972.19201,495.88587 C978.00932,485.809994 989.952044,481.475505 1000.60078,484.870426 C1002.2371,485.3921 1004.60405,475.607475 1002.53567,466.713444 C999.757497,454.767289 985.985267,442.423357 972.921855,439.249909 C983.198738,442.085597 990.74591,451.501483 990.74591,462.680104 C990.74591,476.102533 979.864881,486.983561 966.442453,486.983561 C953.020024,486.983561 942.138995,476.102533 942.138995,462.680104 C942.138995,462.680104 935.106506,460.921982 927.073053,465.856044 Z" id="Combined-Shape-Copy" fill="#B388DD"></path>
            <g id="Group-2" transform="translate(1036.000000, 446.000000)" fill="#CDFC56">
                <path d="M44.5,89 C69.0766714,89 89,69.0766714 89,44.5 C89,19.9233286 69.0766714,0 44.5,0 C19.9233286,0 0,19.9233286 0,44.5 C0,69.0766714 19.9233286,89 44.5,89 Z M44.8622577,54.2139367 L68.8156549,40.3844364 L59.7349826,24.6562506 L35.7815854,38.4857509 L31.2412493,30.621658 L55.1946465,16.7921577 L46.1139742,1.06397195 L6.79350971,23.7656527 L7.0053347,24.1325443 L6.6442162,24.3410362 L42.9669054,87.2537793 L43.3280239,87.0452875 L43.5702325,87.4648051 L82.890697,64.7631244 L73.8100247,49.0349386 L49.8566275,62.8644389 L44.8622577,54.2139367 Z" id="Combined-Shape"></path>
            </g>
            <g id="Group-2" transform="translate(32.000000, 758.890000)" fill="#CDFC56">
                <polygon id="Combined-Shape" points="252.035156 304.572678 386.604803 226.878856 335.58979 138.518262 201.020143 216.212084 175.512636 172.031787 310.082283 94.3379648 259.067271 5.97737052 38.1657849 133.514903 39.3558129 135.576092 37.3270573 136.747394 241.387109 490.189772 243.415865 489.018469 244.776587 491.37531 465.678073 363.837777 414.66306 275.477183 280.093413 353.171005"></polygon>
            </g>
        </g>
    </g>
</svg>