<svg xmlns="http://www.w3.org/2000/svg" width="1535" height="584" version="1"><g fill="#000" fill-rule="evenodd"><path d="M71 384c44 11 89-19 100-67s-15-97-59-107-88 22-99 69c-12 48 14 95 58 105zm-7-6c-37-9-39-58-26-97 12-39 49-71 86-62 36 8 36 55 24 94-12 42-48 73-84 65zm139-167c91-1 110 7 113 8l1 56 22-14v-53H176c2 75 3 107 33 169l24 9c-24-60-29-90-30-123 48-3 99 11 102 80l23-21c0-42-44-64-125-61v-50zm164 0c90-1 110 7 112 8l2 56 22-14v-53H339c3 75 4 107 33 169l24 9c-24-60-28-90-29-123 47-3 99 11 101 80l23-21c0-42-43-64-124-61v-50zm307 9l-23-11c13 132-18 159-29 168-14-9-17-48-17-158l-23-11c0 49 0 88 4 116-15 19-30 35-40 43-14-12-10-37-10-148l-23-11c-1 105-7 166 28 179 25-28 35-45 45-59 4 31 13 50 31 56 45-29 65-69 57-164zm173 50l-22-10c2 20 1 50-2 70-5 31-17 55-51 48-26-6-46-25-57-48 54 0 94-61 116-94l-20-17c-45-20-115-13-124 37-8 39 23 91 62 116 35 22 87 21 95-21 4-22 5-59 3-81zm-117-30c16-15 53-18 79-13-12 35-40 92-95 102a76 76 0 0 1 16-89zm267 38c22-2 38-16 32-59l-22-11c-64-4-108 28-118 84l1-73-23-11v165l23 13c71 4 137-11 141-53 2-33-13-47-34-55zm11-66c5 66-29 66-86 49 20-38 46-53 86-49zm-2 124c-6 38-89 52-116 47a345 345 0 0 1 32-120l41 12c26 9 49 23 43 61zM162 44h-51c-27 0-47 6-59 17-13 10-19 26-19 47v13h50c27 0 47-6 60-17 12-10 18-26 19-47V44zm-4 29c-2 8-9 15-21 23-11 8-29 12-53 12H33l3-16c3-8 10-15 21-23 12-8 29-12 53-12h52l-4 16zm91 35h-36V44h-2l-2 11c-1 5-4 10-9 16-5 5-12 8-21 8h-7v13h4c12 0 20-3 26-9s9-16 9-29v54h-37v13h75v-13zm116-64c-19 0-36 2-52 5-15 3-27 8-36 16-10 7-14 17-14 29 0-3 1-7 5-12 3-6 13-11 27-17 15-5 38-8 69-8h19V44h-18zm8 29c-4 3-11 5-20 5a457 457 0 0 1-30 1h-9a117 117 0 0 0-6 0l-22 2c-8 1-14 4-19 8-4 4-7 10-7 18l1-4c2-2 4-4 9-6 4-2 11-4 20-4a460 460 0 0 1 30-1h15l23-2c7-2 13-5 18-10s7-13 7-23l-1 7-9 9zm28 10c-3 6-13 11-28 17-15 5-37 8-68 8h-45v13h44c19 0 36-2 52-5 15-3 27-8 36-16 10-7 14-17 14-29 0 3-1 7-5 12zm156-39c-19 0-36 2-52 5-15 3-27 8-37 16-9 7-14 17-14 29 0-3 2-7 6-12 3-6 12-11 27-17 15-5 38-8 68-8h20V44h-18zm8 29c-5 3-11 5-21 5l-32 1h-29v13h22l17 1c10 0 17 2 21 4 5 2 8 4 10 7l2 4c0-8-2-14-7-18h1c8-2 14-5 19-10s7-13 7-23l-2 7c-1 3-4 6-8 9zm-118 28c-10-4-17-7-22-11s-8-8-9-11l-2-7c0 12 5 21 14 28 9 8 22 13 39 16 15 4 38 5 70 5h18v-13h-19c-44 0-73-3-89-7zm312-38l-9 7a632 632 0 0 1-56 5l-8-1V57h36V44h-32c-19 0-36 2-52 7s-28 13-38 22c-9 9-13 20-14 33v4c0-3 2-5 6-9 4-3 14-6 29-9 14-3 35-4 63-4v20h-36v13h74v-13h-36V88h20c11 0 20-1 28-3 8-1 14-4 19-8s7-10 7-18l-1 4zM635 77c-15 1-26 5-35 10-5 3-9 6-11 10l3-6c4-7 13-15 28-22s36-11 64-12v17c-20 0-36 1-49 3zm265-33h-50c-24 0-43 4-56 13V44h-25v64h2V57h23l-4 4c-12 11-19 27-19 48l4-17c2-8 9-15 21-23 11-8 29-12 53-12h51V44zm-24 52c-12 8-29 12-53 12h-30v13h29c27 0 47-6 59-17 13-10 19-26 19-47l-3 16c-3 8-10 15-21 23zm133-18c-26 0-48 3-65 7-13 4-21 10-23 18l3-11c2-8 9-15 20-23 12-8 30-12 53-12h33V44h-31c-28 0-47 6-60 17-12 10-18 26-19 46v1l4-5c2-2 7-4 15-6 7-3 18-4 33-4l58-1V78h-21zm17 18l-15 7c-7 2-18 3-33 4l-58 1v13h21c27 0 48-2 65-6 16-5 24-12 24-23l-4 4zm117-52c-19 0-36 2-51 5-16 3-28 8-37 16-10 7-14 17-14 29 0-3 2-7 5-12 4-6 13-11 28-17 15-5 37-8 68-8h19V44h-18zm33 47c-5-5-11-8-18-10h-3c4-7 6-15 6-24a45 45 0 0 1-10 23l-22-1h-21v13h27l-8 4c-15 8-38 12-68 12h-22v13h21c18 0 36-3 52-8 15-4 27-11 36-20h7c9 1 15 2 20 5l8 9c2 3 2 5 2 7 0-10-2-18-7-23zm88-5h29l19 1c12 0 22 2 28 5s10 6 11 9l3 6c-1-10-4-17-10-22-7-5-15-8-26-10a95 95 0 0 1-7-1 957 957 0 0 1-19-1 4748 4748 0 0 1-42-1c-1-7-3-13-8-18-5-4-11-7-19-8l-28-2h-25v13h28l21 1c9 0 16 2 20 4 5 2 7 4 9 6l1 4h-18c-13 0-22-2-28-4-7-2-11-4-12-6l-2-5c0 9 4 15 10 19 7 4 16 7 26 9a274 274 0 0 0 39 1zm90 21h-62c-13-1-22-3-28-6s-10-6-12-9l-2-6c0 10 3 18 10 23 6 5 15 8 25 10l40 2h29v-14zm30-38l15-7c8-2 18-3 33-4l58-1V44h-20c-27 0-49 2-65 6-16 5-25 12-25 23l4-4zm17 18c27 0 49-3 65-7 14-4 22-10 24-18l-3 11c-3 8-10 15-21 23s-29 12-53 12h-32v13h31c27 0 47-6 59-17 13-10 19-26 19-46v-1l-3 5-15 6c-8 3-19 4-33 4l-59 1v14h21z"/></g></svg>